<svg xmlns="http://www.w3.org/2000/svg" viewBox="0 0 100 100">
  <defs>
    <filter id="shadow" x="-20%" y="-20%" width="140%" height="140%">
      <feDropShadow dx="2" dy="2" stdDeviation="0" flood-color="#000" flood-opacity="1" />
    </filter>
  </defs>
  <g filter="url(#shadow)">
    <!-- Petals -->
    <path d="M50 15 C 40 0, 60 0, 50 15 Z" fill="#FFD166" stroke="#000" stroke-width="2"/>
    <path d="M50 85 C 40 100, 60 100, 50 85 Z" fill="#FFD166" stroke="#000" stroke-width="2"/>
    <path d="M15 50 C 0 40, 0 60, 15 50 Z" fill="#FFD166" stroke="#000" stroke-width="2"/>
    <path d="M85 50 C 100 40, 100 60, 85 50 Z" fill="#FFD166" stroke="#000" stroke-width="2"/>
    
    <path d="M25 25 C 10 10, 30 5, 25 25 Z" fill="#FFD166" stroke="#000" stroke-width="2"/>
    <path d="M75 75 C 90 90, 70 95, 75 75 Z" fill="#FFD166" stroke="#000" stroke-width="2"/>
    <path d="M25 75 C 5 70, 10 90, 25 75 Z" fill="#FFD166" stroke="#000" stroke-width="2"/>
    <path d="M75 25 C 90 10, 95 30, 75 25 Z" fill="#FFD166" stroke="#000" stroke-width="2"/>
    
    <!-- Center -->
    <circle cx="50" cy="50" r="18" fill="#EE964B" stroke="#000" stroke-width="3" />
    <!-- Cute Face -->
    <circle cx="44" cy="46" r="3" fill="#000" />
    <circle cx="56" cy="46" r="3" fill="#000" />
    <path d="M 46 52 Q 50 56 54 52" fill="none" stroke="#000" stroke-width="2" stroke-linecap="round" />
    <circle cx="40" cy="50" r="2" fill="#EF476F" opacity="0.8" />
    <circle cx="60" cy="50" r="2" fill="#EF476F" opacity="0.8" />
  </g>
</svg>
